<svg width="58" height="58" viewBox="0 0 58 58" fill="none" xmlns="http://www.w3.org/2000/svg">
<g id="&#240;&#159;&#166;&#134; icon &#34;cog&#34;" filter="url(#filter0_d_17_487)">
<path id="Vector" d="M25.8828 0L22.7656 7.41895C22.1421 7.60599 21.581 7.91771 21.0199 8.22943L13.601 5.11222L9.11222 9.601L12.2294 17.0199C11.9177 17.6434 11.6683 18.1421 11.419 18.7656L4 21.8828V28.1172L11.419 31.2344C11.6683 31.8579 11.9177 32.3566 12.2294 32.98L9.11222 40.399L13.601 44.8878L21.0199 41.7706C21.581 42.0199 22.1421 42.3317 22.7656 42.581L25.8828 50H32.1172L35.2344 42.581C35.7955 42.3317 36.419 42.0823 36.98 41.7706L44.399 44.8878L48.8878 40.399L45.7706 32.98C46.02 32.4189 46.3317 31.7955 46.581 31.2344L54 28.1172V21.8828L46.581 18.7656C46.394 18.2045 46.0823 17.581 45.7706 17.0199L48.8878 9.601L44.399 5.11222L36.98 8.22943C36.419 7.98005 35.7955 7.66833 35.2344 7.41895L32.1172 0L25.8828 0ZM29 15.586C34.1746 15.586 38.3516 19.7631 38.3516 24.9377C38.3516 30.1122 34.1746 34.2893 29 34.2893C23.8254 34.2893 19.6484 30.1122 19.6484 24.9377C19.6484 19.7631 23.8254 15.586 29 15.586Z" fill="#6E0970"/>
</g>
<defs>
<filter id="filter0_d_17_487" x="0" y="0" width="58" height="58" filterUnits="userSpaceOnUse" color-interpolation-filters="sRGB">
<feFlood flood-opacity="0" result="BackgroundImageFix"/>
<feColorMatrix in="SourceAlpha" type="matrix" values="0 0 0 0 0 0 0 0 0 0 0 0 0 0 0 0 0 0 127 0" result="hardAlpha"/>
<feOffset dy="4"/>
<feGaussianBlur stdDeviation="2"/>
<feComposite in2="hardAlpha" operator="out"/>
<feColorMatrix type="matrix" values="0 0 0 0 0 0 0 0 0 0 0 0 0 0 0 0 0 0 0.25 0"/>
<feBlend mode="normal" in2="BackgroundImageFix" result="effect1_dropShadow_17_487"/>
<feBlend mode="normal" in="SourceGraphic" in2="effect1_dropShadow_17_487" result="shape"/>
</filter>
</defs>
</svg>
