<svg width="53" height="58" viewBox="0 0 53 58" fill="none" xmlns="http://www.w3.org/2000/svg">
<g id="&#240;&#159;&#166;&#134; icon &#34;question mark&#34;" filter="url(#filter0_d_17_489)">
<path id="Vector" d="M26.3642 0C18.668 0 12.9638 1.625 9.34205 4.125C5.72032 6.625 4.45272 9.75 4 12.125L13.0543 12.9375C13.4165 11.375 14.1408 9.8125 15.8612 8.625C17.5815 7.4375 20.2978 6.25 26.3642 6.25C32.34 6.25 35.5996 7.25 37.4105 8.375C39.2213 9.5 39.9457 10.875 39.9457 12.5C39.9457 17.6875 36.8672 19.125 32.34 21.875C27.8129 24.625 21.837 28.625 21.837 35.9375V37.5H30.8913V35.9375C30.8913 30.75 33.6982 29.3125 38.2254 26.5625C42.7525 23.8125 49 19.8125 49 12.5C49 9.5 47.4608 6.125 43.6579 3.6875C39.7646 1.25 33.9698 0 26.3642 0ZM21.837 43.75V50H30.8913V43.75H21.837Z" fill="#6E0970"/>
</g>
<defs>
<filter id="filter0_d_17_489" x="0" y="0" width="53" height="58" filterUnits="userSpaceOnUse" color-interpolation-filters="sRGB">
<feFlood flood-opacity="0" result="BackgroundImageFix"/>
<feColorMatrix in="SourceAlpha" type="matrix" values="0 0 0 0 0 0 0 0 0 0 0 0 0 0 0 0 0 0 127 0" result="hardAlpha"/>
<feOffset dy="4"/>
<feGaussianBlur stdDeviation="2"/>
<feComposite in2="hardAlpha" operator="out"/>
<feColorMatrix type="matrix" values="0 0 0 0 0 0 0 0 0 0 0 0 0 0 0 0 0 0 0.25 0"/>
<feBlend mode="normal" in2="BackgroundImageFix" result="effect1_dropShadow_17_489"/>
<feBlend mode="normal" in="SourceGraphic" in2="effect1_dropShadow_17_489" result="shape"/>
</filter>
</defs>
</svg>
